<?xml version="1.0" encoding="UTF-8"?>
<svg width="16px" height="16px" viewBox="0 0 16 16" version="1.1" xmlns="http://www.w3.org/2000/svg" xmlns:xlink="http://www.w3.org/1999/xlink">
    <!-- Generator: Sketch 43.1 (39012) - http://www.bohemiancoding.com/sketch -->
    <title>bottom_icon_3yx</title>
    <desc>Created with Sketch.</desc>
    <defs></defs>
    <g id="index" stroke="none" stroke-width="1" fill="none" fill-rule="evenodd" opacity="0.597543025">
        <g id="新首页（2018尊享版)-" transform="translate(-460.000000, -1155.000000)" fill-rule="nonzero" fill="#A9A9A9">
            <g id="bottom" transform="translate(0.000000, 1131.000000)">
                <path d="M460,32 L460,32 C460,27.581722 463.581722,24 468,24 C472.418278,24 476,27.581722 476,32 C476,36.418278 472.418278,40 468,40 C463.581722,40 460,36.418278 460,32 Z M467.918893,32.5590267 L472.3514,28.8659467 C472.327387,28.8615867 472.305813,28.8515733 472.280893,28.8515733 L463.556893,28.8515733 C463.532493,28.8515733 463.510787,28.8614533 463.48676,28.8659467 L467.918893,32.5590267 Z M472.677507,29.2481867 C472.677507,29.20656 472.666093,29.16804 472.653493,29.1301467 L469.511427,31.7490667 L472.658253,34.89652 C472.666333,34.8648 472.677507,34.8342267 472.677507,34.7999333 L472.677507,29.2481867 Z M463.1844,29.12976 C463.1722,29.1679067 463.16,29.20592 463.16,29.2481867 L463.16,34.7998133 C463.16,34.8344933 463.171947,34.8649333 463.179773,34.8966533 L466.327613,31.7489333 L463.1844,29.12976 Z M469.204973,32.0038933 L468.045533,32.9696533 C468.009173,33.0006 467.964213,33.0154933 467.918893,33.0154933 C467.873933,33.0154933 467.82872,33.0006 467.791973,32.9696533 L466.63356,32.0044133 L463.460933,35.1769067 C463.492147,35.1851333 463.523093,35.19656 463.55688,35.19656 L472.281013,35.19656 C472.31544,35.19656 472.346387,35.1852667 472.378253,35.1769067 L469.204973,32.0038933 Z" id="bottom_icon_3yx"></path>
            </g>
        </g>
    </g>
</svg>