<?xml version="1.0" encoding="UTF-8"?>
<svg width="16px" height="16px" viewBox="0 0 16 16" version="1.1" xmlns="http://www.w3.org/2000/svg" xmlns:xlink="http://www.w3.org/1999/xlink">
    <!-- Generator: Sketch 43.1 (39012) - http://www.bohemiancoding.com/sketch -->
    <title>bottom_icon_2dh</title>
    <desc>Created with Sketch.</desc>
    <defs></defs>
    <g id="index" stroke="none" stroke-width="1" fill="none" fill-rule="evenodd" opacity="0.597543025">
        <g id="新首页（2018尊享版)-" transform="translate(-297.000000, -1155.000000)" fill-rule="nonzero" fill="#A9A9A9">
            <g id="bottom" transform="translate(0.000000, 1131.000000)">
                <path d="M305,24 C300.582,24 297,27.5813333 297,32 C297,36.4186667 300.582,40 305,40 C309.418,40 313,36.4186667 313,32 C313,27.5813333 309.418,24 305,24 Z M308.513042,36.2226667 C307.887708,36.8553333 305.541708,36.266 303.218375,33.9553333 C300.894375,31.6426667 300.288375,29.2973333 300.915708,28.664 C301.458375,28.116 302.119042,27.1586667 303.119708,28.3986667 C304.120375,29.636 303.633042,29.9866667 303.072375,30.5513334 C302.681708,30.9466667 303.504375,31.9393334 304.365708,32.796 C305.227042,33.6513334 306.223708,34.4713334 306.614375,34.0753334 C307.174375,33.51 307.519042,33.0173334 308.763042,34.0106667 C310.005708,35.006 309.055708,35.6746667 308.513042,36.2226667 Z" id="bottom_icon_2dh"></path>
            </g>
        </g>
    </g>
</svg>