<?xml version="1.0" encoding="UTF-8"?>
<svg width="16px" height="16px" viewBox="0 0 16 16" version="1.1" xmlns="http://www.w3.org/2000/svg" xmlns:xlink="http://www.w3.org/1999/xlink">
    <!-- Generator: Sketch 43.1 (39012) - http://www.bohemiancoding.com/sketch -->
    <title>bottom_icon_4zxkf</title>
    <desc>Created with Sketch.</desc>
    <defs></defs>
    <g id="index" stroke="none" stroke-width="1" fill="none" fill-rule="evenodd" opacity="0.597543025">
        <g id="新首页（2018尊享版)-" transform="translate(-620.000000, -1155.000000)" fill-rule="nonzero" fill="#A9A9A9">
            <g id="bottom" transform="translate(0.000000, 1131.000000)">
                <path d="M628,24 C623.5818,24 620,27.5818 620,32 C620,36.4182 623.5818,40 628,40 C632.4182,40 636,36.4182 636,32 C636,27.5818 632.4182,24 628,24 Z M632.768739,33.613442 C632.66938,34.6398458 632.271947,35.4045763 631.844975,35.9192701 C631.608962,36.2036197 631.364296,36.4106907 631.161701,36.5527164 C631.060254,36.6237292 630.964774,36.6777348 630.883318,36.7174184 C630.801862,36.757102 630.766953,36.7935036 630.630298,36.7935036 L629.833045,36.7935036 C629.68714,37.2168951 629.22317,37.5283967 628.668792,37.5283967 C627.998049,37.5283967 627.454115,37.0745711 627.454115,36.514823 C627.454115,35.9550749 627.998049,35.5012492 628.668792,35.5012492 C629.22317,35.5012492 629.68714,35.8127508 629.833045,36.2361424 L630.592106,36.2361424 C630.599864,36.2325619 630.619258,36.2221189 630.64283,36.2107807 C630.689972,36.1881043 630.752332,36.1528963 630.832595,36.0968021 C630.99312,35.9843154 631.200191,35.8079769 631.402189,35.5648027 C631.725924,35.1748289 632.043095,34.6109036 632.174081,33.8542292 C632.086956,33.8679543 632.002516,33.8795909 631.90823,33.8795909 C631.68445,33.8795909 631.503338,33.69818 631.503338,33.4741017 L631.503338,30.6359758 C631.503338,30.4494926 631.635517,30.3029913 631.807082,30.2558484 C631.215706,28.8027709 629.851245,27.7853183 628.2639,27.7853183 C626.676853,27.7853183 625.312094,28.8027709 624.720718,30.2558484 C624.892283,30.3029913 625.024462,30.4494926 625.024462,30.6359758 L625.024462,33.4741017 C625.024462,33.69818 624.84335,33.8795909 624.61957,33.8795909 C623.613455,33.8795909 623,33.0626451 623,32.0550388 C623,31.3604259 623.298672,30.7669617 623.809785,30.4587421 C624.381468,28.4617303 626.157087,27 628.2639,27 C630.370713,27 632.146332,28.4620287 632.718015,30.4587421 C633.229128,30.7669617 633.5278,31.3604259 633.5278,32.0550388 C633.5278,32.7248866 633.246136,33.2959729 632.768739,33.613442 Z" id="bottom_icon_4zxkf"></path>
            </g>
        </g>
    </g>
</svg>