<?xml version="1.0" encoding="UTF-8"?>
<svg width="14px" height="14px" viewBox="0 0 14 14" version="1.1" xmlns="http://www.w3.org/2000/svg" xmlns:xlink="http://www.w3.org/1999/xlink">
    <!-- Generator: Sketch 43.1 (39012) - http://www.bohemiancoding.com/sketch -->
    <title>top_icon_sx</title>
    <desc>Created with Sketch.</desc>
    <defs></defs>
    <g id="index" stroke="none" stroke-width="1" fill="none" fill-rule="evenodd">
        <g id="新首页（2018尊享版)-" transform="translate(-1181.000000, -10.000000)" fill-rule="nonzero" fill="#E8E8E8">
            <g id="top" transform="translate(0.000000, -2.000000)">
                <g id="3" transform="translate(1056.000000, 8.000000)">
                    <path d="M138.343718,9.03124272 L135.499996,9.03124272 C135.137208,9.03124272 134.843762,8.73729886 134.843762,8.37497691 C134.843762,8.01268709 135.137224,7.71874322 135.499996,7.71874322 L136.641574,7.71874322 C135.611807,6.26365686 133.91845,5.3124995 132.000008,5.3124995 C128.858889,5.3124995 126.312499,7.85888859 126.312499,10.9999759 C126.312499,14.1410793 128.858889,16.6874684 132.000008,16.6874684 C135.141111,16.6874684 137.687501,14.1410793 137.687501,10.9999759 C137.687501,10.6376861 137.980946,10.3437422 138.343718,10.3437422 C138.70604,10.3437422 139,10.6376861 139,10.9999759 C139,14.8659481 135.865691,17.9999679 132.000008,17.9999679 C128.134277,17.9999679 125,14.865948 125,10.9999759 C125,7.13401982 128.134277,4 132.000008,4 C134.346178,4 136.41845,5.15672532 137.687501,6.92894979 L137.687501,5.74999398 C137.687501,5.38767203 137.980946,5.09374423 138.343718,5.09374423 C138.70604,5.09374423 139,5.38767203 139,5.74999398 L139,8.37497691 C139,8.73729885 138.706024,9.03124272 138.343718,9.03124272 Z" id="top_icon_sx"></path>
                </g>
            </g>
        </g>
    </g>
</svg>