<?xml version="1.0" encoding="UTF-8"?>
<svg width="18px" height="16px" viewBox="0 0 18 16" version="1.1" xmlns="http://www.w3.org/2000/svg" xmlns:xlink="http://www.w3.org/1999/xlink">
    <!-- Generator: Sketch 43.1 (39012) - http://www.bohemiancoding.com/sketch -->
    <title>news_icon_lb</title>
    <desc>Created with Sketch.</desc>
    <defs></defs>
    <g id="index" stroke="none" stroke-width="1" fill="none" fill-rule="evenodd">
        <g id="新首页（2018尊享版)-" transform="translate(-300.000000, -448.000000)" fill-rule="nonzero" fill="#FFF25D">
            <g id="gonggao" transform="translate(284.000000, 433.000000)">
                <path d="M16,26.9205618 C16,27.2528128 16.2891928,27.5246545 16.6426506,27.5246545 L18.20879,27.5246545 C18.5622478,27.5246545 18.8514406,27.2528128 18.8514406,26.9205618 L18.8514406,19.0945405 C18.8514406,18.7622895 18.5622478,18.4904478 18.20879,18.4904478 L16.6426506,18.4904478 C16.2891928,18.4904478 16,18.7622895 16,19.0945405 L16,26.9205618 Z M19.6181227,26.9096881 L19.6181227,19.0842709 C19.6181227,18.7520199 19.860402,18.3315714 20.1560213,18.1503436 L24.8782177,15.2555312 C25.173837,15.0743034 25.4161162,15.1975383 25.4161162,15.5297893 L25.4161162,30.4702107 C25.4161162,30.8024617 25.173837,30.9256966 24.8782177,30.7438647 L20.1560213,27.8442196 C19.860402,27.6623877 19.6181227,27.2419391 19.6181227,26.9096881 Z M33.1966868,23.7551159 L28.0246349,23.7551159 C27.581206,23.7551159 27.2213217,23.416824 27.2213217,23 C27.2213217,22.583176 27.581206,22.2448841 28.0246349,22.2448841 L33.1966868,22.2448841 C33.6401157,22.2448841 34,22.583176 34,23 C34,23.416824 33.6401157,23.7551159 33.1966868,23.7551159 Z M31.6813167,31 C31.4756685,31 31.2700204,30.9263007 31.1132136,30.7789021 L27.4565318,27.3410103 C27.1429183,27.0462131 27.1429183,26.5683757 27.4565318,26.2729744 C27.7701453,25.9775731 28.2784819,25.9781772 28.592738,26.2729744 L32.2494198,29.7108661 C32.5630333,30.0056634 32.5630333,30.4835007 32.2494198,30.7789021 C32.0926131,30.9263007 31.8869649,31 31.6813167,31 Z M28.0246349,19.9481235 C27.8189868,19.9481235 27.6133386,19.8744242 27.4565318,19.7270256 C27.1429183,19.4322283 27.1429183,18.954391 27.4565318,18.6589897 L31.1132136,15.2210979 C31.4261844,14.9263007 31.9351637,14.9263007 32.2494198,15.2210979 C32.563676,15.5158952 32.5630333,15.9937325 32.2494198,16.2891339 L28.592738,19.7270256 C28.4359313,19.8744242 28.2302831,19.9481235 28.0246349,19.9481235 Z" id="news_icon_lb"></path>
            </g>
        </g>
    </g>
</svg>