<?xml version="1.0" encoding="UTF-8"?>
<svg width="10px" height="10px" viewBox="0 0 10 10" version="1.1" xmlns="http://www.w3.org/2000/svg" xmlns:xlink="http://www.w3.org/1999/xlink">
    <!-- Generator: Sketch 43.1 (39012) - http://www.bohemiancoding.com/sketch -->
    <title>news_icon_gd</title>
    <desc>Created with Sketch.</desc>
    <defs></defs>
    <g id="index" stroke="none" stroke-width="1" fill="none" fill-rule="evenodd">
        <g id="新首页（2018尊享版)-" transform="translate(-1458.000000, -451.000000)" fill-rule="nonzero" fill="#FFFFFF">
            <g id="gonggao" transform="translate(284.000000, 433.000000)">
                <path d="M1183.85451,23.3301154 L1178.9988,27.8836974 C1178.79368,28.0514331 1178.49457,28.0361004 1178.30772,27.8482715 C1178.14398,27.6783785 1178.14398,27.4095669 1178.30772,27.2396739 L1182.82699,23.0094663 L1178.30772,18.7774419 C1178.22056,18.692936 1178.17136,18.5767692 1178.17136,18.4554301 C1178.17136,18.3340911 1178.22056,18.2179243 1178.30772,18.1334184 C1178.50366,17.9555272 1178.80285,17.9555272 1178.9988,18.1334184 L1183.85451,22.6870003 C1183.94551,22.7697988 1183.99818,22.8865166 1184,23.0094663 C1183.99778,23.1318049 1183.94515,23.2478123 1183.85451,23.3301154 Z M1179.83536,23.0094663 C1179.83315,23.1318049 1179.78051,23.2478123 1179.68987,23.3301154 L1174.83416,27.8836974 C1174.62904,28.0514331 1174.32994,28.0361004 1174.14308,27.8482715 C1173.97934,27.6783785 1173.97934,27.4095669 1174.14308,27.2396739 L1178.66235,23.0094663 L1174.14308,18.7774419 C1174.05198,18.6951253 1174,18.5781428 1174,18.4554301 C1174,18.3327175 1174.05198,18.2157349 1174.14308,18.1334184 C1174.33903,17.9555272 1174.63822,17.9555272 1174.83416,18.1334184 L1179.68987,22.6870003 C1179.78088,22.7697988 1179.83354,22.8865166 1179.83536,23.0094663 Z" id="news_icon_gd"></path>
            </g>
        </g>
    </g>
</svg>