<?xml version="1.0" encoding="UTF-8"?>
<svg width="18px" height="22px" viewBox="0 0 18 22" version="1.1" xmlns="http://www.w3.org/2000/svg" xmlns:xlink="http://www.w3.org/1999/xlink">
    <!-- Generator: Sketch 43.1 (39012) - http://www.bohemiancoding.com/sketch -->
    <title>side2_icon_5top</title>
    <desc>Created with Sketch.</desc>
    <defs></defs>
    <g id="index" stroke="none" stroke-width="1" fill="none" fill-rule="evenodd">
        <g id="新首页（2018尊享版)-" transform="translate(-1579.000000, -576.000000)" fill-rule="nonzero" fill="#FFFFFF">
            <g id="side2" transform="translate(1564.000000, 345.000000)">
                <g id="5" transform="translate(4.000000, 222.000000)">
                    <path d="M28.7140954,17.4168511 L20.7755039,9.31399911 C20.5804016,9.11399968 20.3254328,9.01799995 20.0715364,9.01999994 C20.0372219,9.01699995 20.0078095,9 19.973495,9 C19.8303547,9 19.6970184,9.03396865 19.5744974,9.08999974 C19.4509653,9.13799961 19.3333157,9.2109994 19.2332829,9.31296786 L11.2880122,17.4105699 C10.9046399,17.8005687 10.9036902,18.4335357 11.2870012,18.8245658 C11.4781818,19.0205653 11.7291677,19.118565 11.9811646,19.118565 C12.2321198,19.118565 12.4821558,19.0205653 12.6743169,18.8265658 L18.9930816,12.3839904 L18.9930816,30.0000028 C18.9930816,30.5530013 19.4323068,31 19.973495,31 C20.5146833,31 20.9539391,30.5530013 20.9539391,30.0000028 L20.9539391,12.3349905 L27.3238692,18.8268471 C27.5150804,19.0228153 27.7680271,19.1218462 28.0189823,19.1218462 C28.2699375,19.1218462 28.5189932,19.0248778 28.7101738,18.8308471 C29.0954456,18.4418169 29.0964567,17.8078187 28.7140954,17.4168511 Z" id="side2_icon_5top"></path>
                </g>
            </g>
        </g>
    </g>
</svg>