<?xml version="1.0" encoding="UTF-8"?>
<svg width="12px" height="13px" viewBox="0 0 12 13" version="1.1" xmlns="http://www.w3.org/2000/svg" xmlns:xlink="http://www.w3.org/1999/xlink">
    <!-- Generator: Sketch 43.1 (39012) - http://www.bohemiancoding.com/sketch -->
    <title>side1_icon_2ewm</title>
    <desc>Created with Sketch.</desc>
    <defs></defs>
    <g id="index" stroke="none" stroke-width="1" fill="none" fill-rule="evenodd">
        <g id="新首页（2018尊享版)-" transform="translate(-121.000000, -477.000000)" fill-rule="nonzero" fill="#C0C0C0">
            <g id="side1" transform="translate(104.000000, 356.000000)">
                <g id="Group-26">
                    <g id="1">
                        <g id="Group-23" transform="translate(17.000000, 120.000000)">
                            <path d="M0.822924381,8.94512279 L0.823158184,8.94512279 L0.823158184,11.4145973 C0.823158184,11.4145973 0.823158184,12.2377555 1.64631637,12.2377555 L4.11579092,12.2377555 L4.11579092,12.2391215 C4.32721583,12.2563066 4.49362052,12.4335058 4.49362052,12.6493346 C4.49362052,12.8651635 4.32721583,13.0423627 4.11579092,13.0595477 L4.11579092,13.0609137 L1.64631637,13.0609137 C1.64631637,13.0609137 0,13.0609137 0,11.4145973 L0,8.94512279 L0.000233802512,8.94512279 C0.00761984569,8.72440151 0.189070597,8.54753739 0.411579092,8.54753739 C0.634087586,8.54753739 0.815538338,8.72440151 0.822924381,8.94512279 Z M7.88420908,12.2182335 L7.88420908,12.2179997 L10.3536836,12.2179997 C10.3536836,12.2179997 11.1768418,12.2179997 11.1768418,11.3948415 L11.1768418,8.92536699 L11.1782078,8.92536699 C11.1953929,8.71394208 11.3725921,8.54753739 11.5884209,8.54753739 C11.8042498,8.54753739 11.981449,8.71394208 11.998634,8.92536699 L12,8.92536699 L12,11.3948415 C12,11.3948415 12,13.0411579 10.3536836,13.0411579 L7.89820258,13.0411579 C7.89351961,13.0411579 7.88885463,13.0410796 7.88420908,13.0409241 L7.88420908,13.0411579 L7.89820258,13.0411579 Z M4.11579092,1.0002338 L4.11579092,1 L1.64631637,1 C9.13889168e-17,1 9.13889168e-17,2.64631637 9.13889168e-17,2.64631637 L0,5.08286459 C0,5.31005625 0.184387433,5.49444368 0.411579092,5.49444368 C0.63877075,5.49444368 0.823158184,5.31005625 0.823158184,5.08286459 L0.823158184,2.64631637 C0.823158184,1.82315818 1.64631637,1.82315818 1.64631637,1.82315818 L4.11579092,1.82315818 L4.11579092,1.82292438 C4.3365122,1.81553834 4.51337632,1.63408759 4.51337632,1.41157909 C4.51337632,1.1890706 4.3365122,1.00761985 4.11579092,1.0002338 Z M11.1572931,5.11579092 L11.157086,5.11579092 L11.157086,2.64631637 C11.157086,2.64631637 11.157086,1.82315818 10.3339278,1.82315818 L7.86445329,1.82315818 L7.86445329,1.82179221 C7.65302837,1.80460714 7.48662368,1.62740795 7.48662368,1.41157909 C7.48662368,1.19575024 7.65302837,1.01855104 7.86445329,1.00136598 L7.86445329,1 L10.3339278,1 C10.3339278,1 11.9802442,1 11.9802442,2.64631637 L11.9802442,5.11579092 L11.9800371,5.11579092 C11.9730753,5.33689546 11.7914501,5.51419948 11.5686651,5.51419948 C11.3458801,5.51419948 11.1642549,5.33689546 11.1572931,5.11579092 Z M12,7.04115791 C12,7.24036219 11.8444231,7.40170119 11.6518041,7.40170119 L0.347372753,7.40170119 C0.155576897,7.40170119 0,7.24036219 0,7.04115791 C0,6.84195363 0.155576897,6.68061462 0.348195912,6.68061462 L11.6526272,6.68061462 C11.8444231,6.68061462 12,6.84195363 12,7.04115791 Z" id="side1_icon_2ewm"></path>
                        </g>
                    </g>
                </g>
            </g>
        </g>
    </g>
</svg>